<?xml version="1.0" encoding="iso-8859-1"?>
<!-- Generator: Adobe Illustrator 22.1.0, SVG Export Plug-In . SVG Version: 6.00 Build 0)  -->
<svg xmlns="http://www.w3.org/2000/svg" xmlns:xlink="http://www.w3.org/1999/xlink" version="1.1" id="Layer_1_1_" x="0px" y="0px" viewBox="0 0 64 64" style="enable-background:new 0 0 64 64;" xml:space="preserve" width="512" height="512">
<g>
	<path d="M63,40v-8c0-2.757-2.243-5-5-5h-3.22l-0.999-4H42.219l-0.999,4h-1.522l-6,4h-4.882c-0.414-1.161-1.514-2-2.816-2h-4   c-1.302,0-2.402,0.839-2.816,2H15v-9c0-1.045-0.324-2.014-0.875-2.818L16,14.182V11H4v3.182l1.875,5.001   C5.324,19.986,5,20.955,5,22v9.22l-4,0.999v7.562l4,0.999V46c0,0.352,0.072,0.686,0.184,1H4c-1.654,0-3,1.346-3,3v3h62v-3   c0-1.654-1.346-3-3-3h-1v-2.101C61.279,44.434,63,42.414,63,40z M29,47v-6h4.697l6,4H41v2H29z M33,39h-4v-6h4V39z M41,33h14v2H41   V33z M41,37h14v2H41V37z M55,31H41v-2h14V31z M41,43v-2h14v2H41z M61,32v8c0,1.654-1.346,3-3,3h-1V29h1C59.654,29,61,30.346,61,32z    M43.781,25h8.438l0.501,2h-9.439L43.781,25z M35,32.535l4-2.667v12.263l-4-2.667V32.535z M22,31h4c0.552,0,1,0.448,1,1v15h-6V32   C21,31.448,21.448,31,22,31z M10,19c1.654,0,3,1.346,3,3v1H7v-1C7,20.346,8.346,19,10,19z M13,37H7v-8h6V37z M7,25h6v2H7V25z M7,39   h6v2H7V39z M15,46v-5h4v6h-4.184C14.928,46.686,15,46.352,15,46z M19,33v6h-4v-6H19z M6,13h8v0.818l-1.462,3.898   C11.791,17.272,10.93,17,10,17s-1.791,0.272-2.538,0.716L6,13.818V13z M3,38.219v-4.438l2-0.501v5.439L3,38.219z M7,46v-3h6v3   c0,0.552-0.448,1-1,1H8C7.448,47,7,46.552,7,46z M61,50v1H3v-1c0-0.552,0.448-1,1-1h4h4h48C60.552,49,61,49.448,61,50z M43,47v-2   h14v2H43z"/>
	<rect x="23" y="33" width="2" height="12"/>
</g>
</svg>
